<svg width="115" height="116" viewBox="0 0 115 116" fill="none" xmlns="http://www.w3.org/2000/svg">
<g clip-path="url(#clip0_489_953)">
<path d="M62.5529 47.9821V3.31299" stroke="#231F20" stroke-width="0.5" stroke-linecap="round"/>
<path d="M8.99084 83.8791L62.8706 48.2983" stroke="#231F20" stroke-width="0.5" stroke-linecap="round"/>
<path d="M105.886 79.1136L62.8706 48.2979" stroke="#231F20" stroke-width="0.5" stroke-linecap="round"/>
<mask id="mask0_489_953" style="mask-type:luminance" maskUnits="userSpaceOnUse" x="6" y="83" width="4" height="4">
<path d="M9.27867 83.2432H6.51288V86.009H9.27867V83.2432Z" fill="white"/>
</mask>
<g mask="url(#mask0_489_953)">
<mask id="mask1_489_953" style="mask-type:luminance" maskUnits="userSpaceOnUse" x="6" y="83" width="4" height="4">
<path d="M7.8981 86.0135C8.6631 86.0135 9.28334 85.3933 9.28334 84.6283C9.28334 83.8634 8.6631 83.2432 7.8981 83.2432C7.13306 83.2432 6.51288 83.8634 6.51288 84.6283C6.51288 85.3933 7.13306 86.0135 7.8981 86.0135Z" fill="white"/>
</mask>
<g mask="url(#mask1_489_953)">
<path d="M9.27474 83.2432H6.50897V86.009H9.27474V83.2432Z" fill="#EE4130"/>
</g>
</g>
<mask id="mask2_489_953" style="mask-type:luminance" maskUnits="userSpaceOnUse" x="61" y="0" width="3" height="4">
<path d="M63.921 0.581055H61.2187V3.28331H63.921V0.581055Z" fill="#009E4D"/>
</mask>
<g mask="url(#mask2_489_953)">
<mask id="mask3_489_953" style="mask-type:luminance" maskUnits="userSpaceOnUse" x="61" y="0" width="3" height="4">
<path d="M62.5721 3.28785C63.3194 3.28785 63.9255 2.68194 63.9255 1.93445C63.9255 1.18699 63.3194 0.581055 62.5721 0.581055C61.8248 0.581055 61.2187 1.18699 61.2187 1.93445C61.2187 2.68194 61.8248 3.28785 62.5721 3.28785Z" fill="#009E4D"/>
</mask>
<g mask="url(#mask3_489_953)">
<path d="M63.9171 0.581055H61.215V3.28331H63.9171V0.581055Z" fill="#009E4D"/>
</g>
</g>
<mask id="mask4_489_953" style="mask-type:luminance" maskUnits="userSpaceOnUse" x="105" y="78" width="4" height="4">
<path d="M108.397 78.4146H105.631V81.1804H108.397V78.4146Z" fill="white"/>
</mask>
<g mask="url(#mask4_489_953)">
<mask id="mask5_489_953" style="mask-type:luminance" maskUnits="userSpaceOnUse" x="105" y="78" width="4" height="4">
<path d="M107.019 78.4146C106.742 78.4146 106.472 78.4967 106.242 78.6506C106.011 78.804 105.832 79.0226 105.726 79.2783C105.62 79.5339 105.593 79.8151 105.647 80.0866C105.7 80.3582 105.834 80.6076 106.03 80.8029C106.225 80.999 106.475 81.1323 106.746 81.1859C107.018 81.24 107.299 81.2124 107.555 81.1067C107.81 81.0007 108.029 80.8213 108.182 80.5912C108.336 80.3609 108.418 80.0904 108.418 79.8139C108.418 79.4426 108.271 79.0867 108.008 78.8246C107.746 78.562 107.39 78.4146 107.019 78.4146Z" fill="white"/>
</mask>
<g mask="url(#mask5_489_953)">
<path d="M108.393 78.4146H105.628V81.1804H108.393V78.4146Z" fill="#F47D20"/>
</g>
</g>
<mask id="mask6_489_953" style="mask-type:luminance" maskUnits="userSpaceOnUse" x="31" y="21" width="74" height="70">
<path d="M104.818 21.2476H31.1146V90.8211H104.818V21.2476Z" fill="white"/>
</mask>
<g mask="url(#mask6_489_953)">
<path d="M70.3343 21.3366L72.7105 21.6543C75.3223 22.0082 77.8824 22.6751 80.335 23.6409C86.175 25.9097 91.2838 29.7312 95.1097 34.6923C95.171 34.7737 95.2274 34.8586 95.279 34.9464C95.3227 35.0127 95.34 35.0926 95.3274 35.1711C95.315 35.2495 95.2735 35.3207 95.2112 35.3701C95.1787 35.3999 95.14 35.4225 95.0981 35.4369C95.0561 35.4513 95.0122 35.457 94.9677 35.4535C94.9236 35.4498 94.8809 35.4369 94.8419 35.416C94.8029 35.3952 94.7687 35.3664 94.7411 35.3316C94.6585 35.2495 94.5835 35.1604 94.5165 35.0651C91.9936 31.81 88.8957 29.0447 85.3756 26.9065C79.3641 23.2433 72.3561 21.556 65.336 22.082C62.6212 22.2656 59.9417 22.7995 57.364 23.6704L57.2414 23.7128C57.0041 23.789 56.75 23.823 56.6566 23.5264C56.5636 23.2299 56.7753 23.1241 56.9999 23.0522C57.669 22.8444 58.3384 22.6285 59.0118 22.4421C61.0291 21.8998 63.0923 21.5481 65.1749 21.3917C65.2615 21.3749 65.3461 21.3523 65.429 21.3237L70.3343 21.3366Z" fill="black"/>
<path d="M36.2526 55.7828C36.2735 49.9626 37.8848 44.2591 40.9122 39.2883C43.346 35.2708 46.6477 31.8487 50.5754 29.2725C54.5033 26.6962 58.9576 25.0313 63.612 24.3993C63.8661 24.3653 64.1245 24.3993 64.154 24.7001C64.1838 25.0008 63.9083 25.0899 63.6457 25.1237C61.616 25.3855 59.62 25.8613 57.6903 26.5428C53.9081 27.8511 50.418 29.8872 47.4184 32.5365C45.6033 34.1085 43.9938 35.9032 42.6277 37.8778C40.4598 40.9919 38.8634 44.4676 37.9133 48.1414C37.4067 50.1669 37.0975 52.2366 36.9898 54.3214C36.7622 58.8115 37.5333 63.2963 39.2476 67.4526C40.1153 69.5627 41.2073 71.5736 42.5049 73.4504C46.5966 79.4272 52.1752 83.3496 59.0584 85.4675C61.4812 86.1917 63.9863 86.6047 66.5134 86.6958C70.757 86.8827 74.9931 86.1934 78.9583 84.6713C79.1955 84.5822 79.4666 84.4677 79.5979 84.7896C79.7292 85.1116 79.4581 85.2133 79.2251 85.3193C75.2245 86.8789 70.9436 87.5925 66.6533 87.416C63.9041 87.3351 61.1792 86.8777 58.5543 86.0562C54.1211 84.7068 50.042 82.3923 46.6093 79.279C44.8816 77.7412 43.3443 76.0021 42.0303 74.0985C39.6782 70.7004 37.984 66.8917 37.0364 62.8692C36.5085 60.5441 36.2457 58.1672 36.2526 55.7828Z" fill="black"/>
<path d="M94.6607 55.7912C94.6493 62.0459 92.4597 68.1013 88.4678 72.9168C84.6176 77.6523 79.6701 80.6091 73.7611 82.0069C71.4253 82.5559 69.0246 82.7753 66.628 82.6591C65.4474 82.6008 64.2727 82.4593 63.1121 82.2355C63.0389 82.2268 62.9664 82.2106 62.8962 82.1888C62.6971 82.1124 62.4981 82.0066 62.5658 81.7651C62.5805 81.7153 62.6051 81.6691 62.6386 81.6291C62.6721 81.5894 62.7135 81.5574 62.7597 81.5341C62.8063 81.5112 62.8572 81.4981 62.9093 81.4956C62.961 81.4931 63.0126 81.5011 63.0612 81.5197C63.6797 81.651 64.3024 81.7019 64.9252 81.7823C69.0486 82.2499 73.2243 81.7301 77.1072 80.2658C80.1873 79.1219 83.0113 77.3813 85.418 75.1448C89.2156 71.6455 91.9095 67.1145 93.1696 62.107C93.6064 60.3778 93.8563 58.6072 93.9151 56.8247C94.1812 50.4521 92.0929 44.2035 88.0486 39.2712C84.4098 34.7007 79.7038 31.8204 74.0703 30.3759C72.497 29.986 70.89 29.7495 69.271 29.6688C64.3695 29.3799 59.4872 30.4936 55.1955 32.8797L55.0768 32.943C54.848 33.0572 54.5896 33.1845 54.433 32.8755C54.2762 32.5663 54.5092 32.4516 54.7294 32.3287C55.1277 32.117 55.5258 31.9053 55.9324 31.702C60.6748 29.345 66.0095 28.4467 71.2623 29.1206C76.5148 29.7947 81.4499 32.0108 85.4436 35.489C86.5143 36.3979 87.4986 37.4048 88.3832 38.4963C91.9862 42.8365 94.1519 48.1888 94.5801 53.8131C94.6352 54.4738 94.6267 55.1305 94.6607 55.7912Z" fill="black"/>
<path d="M97.9644 55.9478C97.9607 50.0919 96.2807 44.3594 93.1229 39.428C90.7678 35.7265 87.6192 32.594 83.9058 30.2575C83.8321 30.2131 83.7613 30.1635 83.6941 30.1094C83.5501 29.9865 83.4526 29.8423 83.5628 29.6475C83.5846 29.605 83.6156 29.5676 83.6534 29.538C83.6911 29.5085 83.7348 29.4874 83.7812 29.4762C83.8278 29.4648 83.8765 29.4638 83.9236 29.473C83.9705 29.4819 84.015 29.501 84.0539 29.5288C84.2217 29.6172 84.3845 29.7147 84.5411 29.8212C88.0218 32.0346 91.0046 34.9469 93.3009 38.3735C95.7548 41.9946 97.4229 46.0898 98.1975 50.3947C98.4449 51.9077 98.5864 53.4363 98.6211 54.9694C98.7286 58.4148 98.2446 61.8535 97.1893 65.1354C96.2626 67.9881 94.9407 70.6969 93.2627 73.1836C91.085 76.4369 88.2903 79.2318 85.0368 81.4094C84.9055 81.4983 84.77 81.5874 84.6131 81.6678C84.4098 81.7865 84.1897 81.8584 84.0328 81.6169C83.8762 81.3754 84.0328 81.2315 84.215 81.1002C84.3972 80.9689 84.4818 80.918 84.6131 80.8292C87.1305 79.1628 89.368 77.1082 91.2424 74.7422C94.2388 70.9905 96.311 66.5866 97.2911 61.8866C97.6202 60.4036 97.8098 58.8933 97.8587 57.3754C97.8967 56.8544 97.9816 56.2995 97.9644 55.9478Z" fill="black"/>
<path d="M67.8139 90.1269C63.5102 90.0968 59.2495 89.2708 55.2461 87.6911L55.1233 87.6447C54.8947 87.5387 54.615 87.4327 54.7505 87.1108C54.8863 86.7889 55.1742 86.8991 55.3946 86.9922C57.7115 87.9251 60.1276 88.5905 62.5954 88.9747C65.0322 89.3723 67.5069 89.4875 69.97 89.3177C71.9791 89.1775 73.9728 88.8688 75.9298 88.3945C84.1406 86.3615 91.2754 81.2927 95.8975 74.2085C96.3847 73.4631 96.7912 72.6667 97.2402 71.8958C97.2988 71.7794 97.3636 71.6657 97.435 71.557C97.5621 71.3748 97.7316 71.2393 97.9518 71.3748C98.1722 71.5104 98.1424 71.7221 98.0324 71.9127C97.4606 72.9166 96.9394 73.9459 96.2956 74.9074C93.6084 78.9174 90.1054 82.315 86.0152 84.8786C82.3546 87.182 78.2874 88.7638 74.0321 89.5381C73.5028 89.6354 72.9689 89.7287 72.4311 89.7965C70.9009 90.01 69.3587 90.1204 67.8139 90.1269Z" fill="black"/>
<path d="M31.2927 55.7907C31.2218 50.0396 32.5536 44.3577 35.1727 39.237C38.9594 31.6802 44.7498 26.1777 52.3361 22.5225C52.6538 22.3701 52.9714 22.2259 53.2978 22.0988C53.5391 21.9973 53.8314 21.8447 53.9796 22.1837C54.128 22.5225 53.8272 22.6369 53.5857 22.7426C51.4518 23.6753 49.4121 24.8101 47.4946 26.1313C42.8729 29.2886 39.0679 33.4987 36.3926 38.4152C34.42 42.0098 33.0708 45.9126 32.4024 49.9579C32.1698 51.4133 32.0284 52.8819 31.9787 54.3547C31.9281 55.7483 32.0085 57.1292 32.0338 58.5142C32.0338 58.6879 32.0338 58.8659 32.0338 59.0396C32.0281 59.1121 31.9971 59.1798 31.9462 59.2314C31.8953 59.2831 31.8281 59.3153 31.7559 59.3225C31.6836 59.3292 31.6114 59.3111 31.5514 59.2699C31.4915 59.2292 31.4479 59.1687 31.4282 59.0989C31.3677 58.8587 31.3322 58.6134 31.3223 58.366C31.284 57.4849 31.2927 56.6378 31.2927 55.7907Z" fill="black"/>
<path d="M104.823 63.4872C104.602 64.4698 104.356 65.5204 104.043 66.5581C103.312 68.9793 102.349 71.3242 101.167 73.5599C97.0951 81.2544 90.4879 87.3049 82.4658 90.6855C82.3484 90.7421 82.2248 90.785 82.0972 90.8126C82.018 90.8359 81.9329 90.8287 81.8587 90.7913C81.785 90.7545 81.7279 90.691 81.6991 90.6135C81.6626 90.5376 81.6579 90.4505 81.6855 90.3711C81.7135 90.2916 81.7716 90.2264 81.8473 90.1899C81.9349 90.1378 82.027 90.0938 82.1225 90.0586C85.7092 88.5518 89.0389 86.4953 91.9922 83.9632C95.283 81.1591 98.0409 77.7839 100.133 74.0005C101.966 70.7144 103.295 67.1719 104.077 63.4915C104.077 63.4195 104.115 63.3475 104.136 63.2795C104.2 63.0636 104.318 62.8941 104.56 62.9534C104.801 63.0127 104.844 63.2117 104.823 63.4872Z" fill="black"/>
<path d="M104.551 50.6106C104.551 50.8986 104.513 51.1316 104.238 51.1485C103.963 51.1654 103.878 50.9028 103.84 50.67C103.622 49.1669 103.312 47.6785 102.912 46.2137C102.253 43.86 101.377 41.5727 100.294 39.3814C98.6157 35.9526 96.383 32.8241 93.6864 30.1218C91.6963 28.0978 89.4693 26.3212 87.0531 24.8313C86.8074 24.679 86.3964 24.539 86.6295 24.1536C86.8625 23.7681 87.1802 24.09 87.4172 24.2427C93.0006 27.6823 97.553 32.564 100.595 38.3732C102.574 42.1301 103.905 46.1943 104.53 50.3945C104.543 50.4836 104.547 50.5724 104.551 50.6106Z" fill="black"/>
<path d="M41.5858 56.0024C41.6873 49.5724 43.6401 43.9896 47.5837 39.1141C48.0279 38.5368 48.5015 37.9823 49.0026 37.4536C49.1721 37.2799 49.3669 37.098 49.6042 37.3181C49.8412 37.5385 49.6677 37.7671 49.4982 37.9535C47.0131 40.6072 45.0861 43.7329 43.8307 47.1454C43.1023 49.1078 42.6322 51.1567 42.4329 53.2407C42.382 53.8972 42.2847 54.5495 42.2805 55.202C42.2224 58.5694 42.8166 61.9166 44.0298 65.0587C44.1315 65.3297 44.3815 65.6983 43.962 65.8549C43.5428 66.0118 43.4664 65.5541 43.3606 65.2789C42.4468 62.9347 41.8762 60.4709 41.6662 57.9636C41.6727 57.3086 41.6456 56.6544 41.5858 56.0024Z" fill="black"/>
<path d="M101.078 55.1855C101.141 59.4306 100.404 63.6492 98.9048 67.6215C98.8656 67.7327 98.8177 67.8402 98.7609 67.9434C98.7227 68.0199 98.6567 68.0784 98.577 68.1077C98.4971 68.137 98.409 68.1348 98.3305 68.1013C98.2521 68.0675 98.1895 68.0055 98.155 67.9275C98.1213 67.8491 98.1183 67.7612 98.1466 67.6811C98.2101 67.4567 98.295 67.2361 98.3754 67.0159C99.2523 64.5998 99.8507 62.0915 100.159 59.5398C100.4 57.4773 100.442 55.3965 100.282 53.3258C100.053 50.0283 99.3005 46.7886 98.0535 43.7274C97.7103 42.8803 97.3546 42.0541 96.9436 41.245C96.8903 41.143 96.8493 41.0352 96.8208 40.9233C96.7954 40.8459 96.7997 40.7612 96.8337 40.6865C96.8669 40.6121 96.9277 40.553 97.0029 40.5207C97.0699 40.489 97.1466 40.483 97.2179 40.5041C97.2889 40.525 97.3494 40.5719 97.3884 40.6352C97.4668 40.7414 97.5346 40.8551 97.5919 40.9742C99.1756 44.1416 100.237 47.5449 100.735 51.0514C100.945 52.4199 101.06 53.8011 101.078 55.1855Z" fill="black"/>
<path d="M33.0206 65.6433C33.0206 65.3638 33.0673 65.1774 33.3003 65.1519C33.5331 65.1265 33.6689 65.3512 33.7238 65.5755C34.0077 66.5879 34.3507 67.5834 34.7277 68.566C35.3772 70.2103 36.133 71.8106 36.9897 73.3569C38.6348 76.3397 40.726 79.0537 43.1908 81.4048C44.5862 82.7605 46.0955 83.9935 47.7023 85.09C47.7894 85.1434 47.8728 85.2027 47.9519 85.268C48.1046 85.4077 48.1977 85.573 48.0537 85.7678C48.0016 85.8405 47.9232 85.8897 47.835 85.9046C47.7469 85.92 47.6568 85.8996 47.5836 85.8482C47.4903 85.7974 47.4057 85.7425 47.3208 85.6874C42.969 82.7126 39.3342 78.8057 36.6805 74.2506C35.164 71.6774 33.9665 68.9296 33.1139 66.0669C33.0799 65.889 33.042 65.7324 33.0206 65.6433Z" fill="black"/>
<path d="M59.4523 81.2524C58.8805 81.0365 58.2156 80.829 57.5717 80.5409C54.1258 79.1232 51.0249 76.9825 48.4774 74.2633C47.4015 73.1104 46.4276 71.866 45.5674 70.5444C45.4234 70.3155 45.2581 70.0529 45.5674 69.8581C45.8766 69.6633 46.0163 69.9343 46.1476 70.142C47.1024 71.5957 48.1965 72.9533 49.4134 74.1955C52.171 77.021 55.5529 79.1592 59.2873 80.4394C59.4401 80.4885 59.59 80.5463 59.7362 80.6128C59.7777 80.6265 59.8162 80.6486 59.8494 80.6779C59.8824 80.7067 59.909 80.7421 59.9281 80.7816C59.9467 80.8208 59.9576 80.864 59.9599 80.9077C59.9616 80.9519 59.9549 80.9956 59.9395 81.0365C59.8717 81.2187 59.7194 81.2653 59.4523 81.2524Z" fill="black"/>
</g>
<mask id="mask7_489_953" style="mask-type:luminance" maskUnits="userSpaceOnUse" x="49" y="84" width="4" height="4">
<path d="M52.9205 84.4209H49.7225V87.6189H52.9205V84.4209Z" fill="#009E4D"/>
</mask>
<g mask="url(#mask7_489_953)">
<mask id="mask8_489_953" style="mask-type:luminance" maskUnits="userSpaceOnUse" x="49" y="84" width="4" height="4">
<path d="M51.3194 87.6181C52.2012 87.6181 52.9163 86.903 52.9163 86.0212C52.9163 85.1394 52.2012 84.4243 51.3194 84.4243C50.4376 84.4243 49.7225 85.1394 49.7225 86.0212C49.7225 86.903 50.4376 87.6181 51.3194 87.6181Z" fill="#009E4D"/>
</mask>
<g mask="url(#mask8_489_953)">
<path d="M52.9205 84.4209H49.7225V87.6189H52.9205V84.4209Z" fill="#009E4D"/>
</g>
</g>
<mask id="mask9_489_953" style="mask-type:luminance" maskUnits="userSpaceOnUse" x="31" y="60" width="4" height="4">
<path d="M34.3128 60.688H31.1146V63.886H34.3128V60.688Z" fill="#009E4D"/>
</mask>
<g mask="url(#mask9_489_953)">
<mask id="mask10_489_953" style="mask-type:luminance" maskUnits="userSpaceOnUse" x="31" y="60" width="4" height="4">
<path d="M32.7114 63.8852C33.5935 63.8852 34.3086 63.1701 34.3086 62.2883C34.3086 61.4064 33.5935 60.6914 32.7114 60.6914C31.8296 60.6914 31.1146 61.4064 31.1146 62.2883C31.1146 63.1701 31.8296 63.8852 32.7114 63.8852Z" fill="#009E4D"/>
</mask>
<g mask="url(#mask10_489_953)">
<path d="M34.3091 60.688H31.1111V63.886H34.3091V60.688Z" fill="#009E4D"/>
</g>
</g>
<mask id="mask11_489_953" style="mask-type:luminance" maskUnits="userSpaceOnUse" x="50" y="33" width="4" height="4">
<path d="M53.6959 33.4854H50.4977V36.6833H53.6959V33.4854Z" fill="white"/>
</mask>
<g mask="url(#mask11_489_953)">
<mask id="mask12_489_953" style="mask-type:luminance" maskUnits="userSpaceOnUse" x="50" y="33" width="4" height="4">
<path d="M52.0983 36.6825C52.9801 36.6825 53.6952 35.9677 53.6952 35.0856C53.6952 34.2038 52.9801 33.4888 52.0983 33.4888C51.2162 33.4888 50.5014 34.2038 50.5014 35.0856C50.5014 35.9677 51.2162 36.6825 52.0983 36.6825Z" fill="white"/>
</mask>
<g mask="url(#mask12_489_953)">
<path d="M53.6959 33.4854H50.4977V36.6833H53.6959V33.4854Z" fill="#F47D20"/>
</g>
</g>
<mask id="mask13_489_953" style="mask-type:luminance" maskUnits="userSpaceOnUse" x="103" y="55" width="4" height="4">
<path d="M104.865 58.8363C105.747 58.8363 106.462 58.1213 106.462 57.2395C106.462 56.3576 105.747 55.6426 104.865 55.6426C103.983 55.6426 103.268 56.3576 103.268 57.2395C103.268 58.1213 103.983 58.8363 104.865 58.8363Z" fill="white"/>
</mask>
<g mask="url(#mask13_489_953)">
<path d="M106.462 55.6426H103.264V58.8406H106.462V55.6426Z" fill="#EE4130"/>
</g>
<mask id="mask14_489_953" style="mask-type:luminance" maskUnits="userSpaceOnUse" x="52" y="30" width="33" height="49">
<path d="M84.5031 30.52H52.099V78.4909H84.5031V30.52Z" fill="white"/>
</mask>
<g mask="url(#mask14_489_953)">
<path d="M68.5763 30.541C69.1616 31.5782 69.6319 32.676 69.9784 33.8154C70.3291 34.9725 70.5646 36.1616 70.6815 37.3651C70.9173 39.8416 70.6994 42.3414 70.0377 44.7397C69.379 47.0965 68.4195 49.3588 67.1827 51.4704C66.0051 53.529 64.6963 55.3884 63.4849 57.1124C62.3516 58.6455 61.3189 60.25 60.3926 61.9159C60.2909 62.1023 60.202 62.2887 60.1174 62.4751C60.0325 62.6615 59.9521 62.8437 59.8633 63.0301C59.7233 63.3984 59.5709 63.7627 59.4649 64.1355C59.2304 64.8937 59.0884 65.6773 59.0415 66.4695C58.9866 67.3573 59.0194 68.2481 59.1388 69.1297C59.2726 70.1177 59.4679 71.0966 59.7233 72.0608C59.9774 73.0774 60.308 74.1067 60.6426 75.1742C60.9771 76.2414 61.371 77.3131 61.7058 78.4652C60.6582 77.9108 59.6654 77.2585 58.7407 76.5169C57.7968 75.7743 56.9222 74.9476 56.1272 74.0474C55.296 73.1075 54.5693 72.0807 53.9585 70.9849C53.3023 69.8097 52.8118 68.5496 52.5013 67.2404C52.4122 66.9014 52.3614 66.5542 52.2978 66.2069C52.2343 65.8595 52.209 65.5036 52.1752 65.1479C52.1221 64.4316 52.1221 63.7123 52.1752 62.9961C52.2891 61.591 52.5912 60.2076 53.0732 58.883C53.2933 58.2531 53.5462 57.6351 53.8314 57.032C54.1109 56.4475 54.4117 55.8799 54.7167 55.3375C55.0215 54.7955 55.3476 54.2788 55.6653 53.7705C55.983 53.2622 56.3262 52.7876 56.6566 52.3133C57.9824 50.4367 59.3252 48.7721 60.5664 47.1412C61.7791 45.5753 62.9101 43.9484 63.955 42.2659C65.0021 40.5589 65.8911 38.7595 66.6109 36.8906C66.9879 35.9206 67.3309 34.9082 67.6528 33.8492C67.9747 32.7904 68.246 31.6931 68.5721 30.541M75.0189 47.3998C74.7988 48.124 74.5657 48.8145 74.3074 49.4794C73.8164 50.7574 73.2081 51.9867 72.4901 53.152C71.7701 54.3016 70.9925 55.414 70.1606 56.4857C69.3132 57.5954 68.3942 58.7348 67.4878 60.0182C67.2589 60.3401 67.0343 60.6747 66.8099 61.0137C66.5853 61.3525 66.3863 61.7126 66.1619 62.0854C65.9373 62.4582 65.7382 62.8437 65.5561 63.246C65.3739 63.6483 65.1875 64.0678 65.0351 64.5167C64.706 65.4212 64.501 66.3658 64.425 67.3251C64.3891 67.8142 64.3891 68.3057 64.425 68.7949C64.4506 69.0406 64.4759 69.2821 64.5099 69.5193C64.5437 69.7564 64.5903 69.9979 64.6497 70.2267C64.8626 71.1157 65.1977 71.971 65.6452 72.7682C66.0606 73.5259 66.5578 74.2363 67.1276 74.886C67.6702 75.5045 68.2688 76.0716 68.9151 76.5804C69.5468 77.0887 70.2261 77.534 70.9441 77.9105C70.7153 77.1225 70.4485 76.394 70.2199 75.6611C69.991 74.9285 69.7622 74.2296 69.5887 73.5433C69.4078 72.8846 69.2663 72.2155 69.1651 71.5396C69.0864 70.9375 69.0645 70.3292 69.1015 69.7226C69.1363 69.1801 69.2375 68.6437 69.4023 68.1257C69.4743 67.8716 69.5803 67.6216 69.6776 67.3675C69.7369 67.2404 69.7835 67.1176 69.8471 66.9905C69.9106 66.8634 69.9657 66.7363 70.0377 66.6093C70.6708 65.4686 71.3782 64.3701 72.1555 63.3222C72.9815 62.1448 73.8753 60.8782 74.697 59.4675C75.5439 58.025 76.2003 56.4787 76.6498 54.8675C77.0976 53.2274 77.2408 51.5186 77.0732 49.8269C76.9946 49.0034 76.8327 48.1906 76.5905 47.3998C76.3555 46.6212 76.0343 45.8709 75.6332 45.1631C75.4255 45.9255 75.2349 46.6753 75.0232 47.3998H75.0189ZM80.4621 68.1215C80.4916 68.4201 80.4916 68.7209 80.4621 69.0195C80.4263 69.2987 80.3638 69.5739 80.2757 69.8412C80.1834 70.0889 80.0667 70.3275 79.9282 70.5528C79.8478 70.6546 79.7927 70.7687 79.6996 70.8663C79.6207 70.967 79.5356 71.0631 79.4455 71.1542C79.3437 71.2391 79.2591 71.3364 79.1531 71.4083C79.1057 71.4538 79.0531 71.4935 78.9965 71.527L78.8354 71.6372C78.6106 71.7752 78.372 71.8901 78.1238 71.9802C77.8578 72.068 77.5843 72.1306 77.3063 72.1666C77.0065 72.1964 76.7039 72.1964 76.4041 72.1666C75.1629 72.01 73.6973 71.2093 72.7358 69.3116C72.4901 69.8043 72.3586 70.3456 72.3504 70.8958C72.3419 71.4741 72.441 72.0484 72.6427 72.5902C72.8639 73.1658 73.1801 73.6999 73.5787 74.1702C73.9999 74.6522 74.4963 75.0632 75.0487 75.3859C75.6293 75.7113 76.2587 75.9416 76.9124 76.0679C77.2452 76.1292 77.5825 76.1632 77.9206 76.1694H78.1747C78.2594 76.1759 78.344 76.1759 78.4289 76.1694L78.9414 76.1188C79.6259 76.0175 80.2906 75.8103 80.9111 75.5045C81.0635 75.4283 81.2119 75.3392 81.3643 75.2504C81.5112 75.1642 81.6527 75.0694 81.7879 74.9664C82.0681 74.7619 82.3342 74.5383 82.5841 74.2973C82.8256 74.0479 83.0492 73.7818 83.2535 73.5009C83.358 73.3658 83.4543 73.2244 83.5414 73.0774C83.6263 72.929 83.7194 72.7808 83.7956 72.6242C84.1001 72.0045 84.3073 71.3416 84.4098 70.6588C84.4098 70.4893 84.4436 70.3198 84.4565 70.1505C84.4692 69.981 84.4565 69.8115 84.4565 69.6422C84.4506 69.3066 84.4165 68.9723 84.3547 68.6425C84.2282 67.9902 83.9976 67.3623 83.6727 66.783C83.3478 66.2293 82.9358 65.7316 82.4528 65.3087C81.9815 64.9116 81.4477 64.5954 80.8728 64.3728C80.3298 64.1757 79.7562 64.0767 79.1787 64.0804C78.6279 64.0913 78.0856 64.2214 77.5902 64.4616C79.5048 65.4189 80.3094 66.8803 80.4663 68.1215H80.4621Z" fill="#F58027"/>
</g>
<path d="M34.8849 106.974C36.2822 106.974 36.9809 106.496 36.9809 105.54C36.9809 105.246 36.9166 104.998 36.7878 104.796C36.6684 104.585 36.5028 104.405 36.2914 104.258C36.0799 104.102 35.8364 103.969 35.5607 103.858C35.2941 103.748 35.009 103.638 34.7057 103.527C34.3564 103.408 34.0254 103.275 33.7129 103.127C33.4004 102.971 33.1291 102.792 32.8993 102.59C32.6695 102.378 32.4858 102.13 32.3478 101.845C32.2193 101.56 32.1547 101.215 32.1547 100.811C32.1547 99.9744 32.4399 99.3219 33.0098 98.853C33.5796 98.3842 34.3656 98.1499 35.3676 98.1499C35.9466 98.1499 36.4706 98.2142 36.9394 98.3428C37.4174 98.4624 37.7669 98.5957 37.9873 98.7426L37.5599 99.8319C37.3668 99.7125 37.0774 99.5976 36.6912 99.4872C36.3144 99.3678 35.8732 99.308 35.3676 99.308C35.1102 99.308 34.8712 99.3355 34.6506 99.3909C34.4299 99.446 34.2368 99.5286 34.0715 99.6391C33.906 99.7493 33.7727 99.8917 33.6717 100.066C33.5796 100.232 33.5337 100.43 33.5337 100.659C33.5337 100.917 33.5843 101.133 33.6853 101.307C33.7864 101.482 33.9291 101.638 34.1127 101.776C34.2966 101.905 34.5081 102.024 34.7471 102.135C34.9953 102.245 35.2663 102.355 35.5607 102.465C35.9742 102.631 36.3512 102.797 36.6912 102.962C37.0407 103.127 37.3392 103.325 37.5874 103.555C37.8448 103.785 38.0426 104.06 38.1804 104.382C38.3184 104.695 38.3874 105.076 38.3874 105.527C38.3874 106.363 38.0794 107.007 37.4633 107.457C36.8568 107.907 35.9973 108.133 34.8849 108.133C34.5081 108.133 34.1586 108.105 33.837 108.05C33.5245 108.004 33.244 107.949 32.9959 107.885C32.7477 107.811 32.5317 107.737 32.3478 107.664C32.1731 107.581 32.0353 107.512 31.9341 107.457L32.3342 106.354C32.5454 106.474 32.8673 106.607 33.2994 106.754C33.7313 106.901 34.2599 106.974 34.8849 106.974ZM46.7048 98.3703H48.0423V107.926H46.7048V103.514H42.0306V107.926H40.6931V98.3703H42.0306V102.355H46.7048V98.3703ZM51.1046 98.3703H52.4421V107.926H51.1046V98.3703ZM59.7851 106.602C59.6933 106.381 59.5692 106.101 59.4128 105.761C59.2659 105.421 59.1051 105.053 58.9303 104.658C58.7556 104.263 58.5672 103.858 58.365 103.445C58.1719 103.022 57.9882 102.627 57.8135 102.259C57.6387 101.882 57.4732 101.546 57.3171 101.252C57.1699 100.958 57.0505 100.733 56.9585 100.576C56.8574 101.661 56.7748 102.838 56.7103 104.107C56.646 105.366 56.5909 106.639 56.545 107.926H55.235C55.2717 107.099 55.3132 106.267 55.3591 105.43C55.405 104.585 55.4556 103.757 55.5107 102.948C55.575 102.13 55.6395 101.335 55.7038 100.563C55.7773 99.7907 55.8555 99.0598 55.9381 98.3703H57.1101C57.3583 98.7749 57.6251 99.2529 57.91 99.8044C58.195 100.356 58.4799 100.935 58.7648 101.542C59.0497 102.139 59.3255 102.741 59.5923 103.348C59.8588 103.945 60.1023 104.492 60.323 104.989C60.5436 104.492 60.7871 103.945 61.0536 103.348C61.3202 102.741 61.5962 102.139 61.8811 101.542C62.166 100.935 62.451 100.356 62.7361 99.8044C63.0208 99.2529 63.2876 98.7749 63.5356 98.3703H64.7078C65.0203 101.45 65.2548 104.635 65.4109 107.926H64.101C64.055 106.639 64 105.366 63.9357 104.107C63.8711 102.838 63.7885 101.661 63.6875 100.576C63.5954 100.733 63.4715 100.958 63.3152 101.252C63.168 101.546 63.0072 101.882 62.8327 102.259C62.6577 102.627 62.4693 103.022 62.2671 103.445C62.0742 103.858 61.8903 104.263 61.7156 104.658C61.5408 105.053 61.3755 105.421 61.2192 105.761C61.072 106.101 60.9526 106.381 60.8608 106.602H59.7851ZM74.2645 99.4321C74.0533 99.6711 73.8048 99.9607 73.5199 100.301C73.2442 100.632 72.9501 101.004 72.6373 101.418C72.3249 101.822 72.0032 102.254 71.6721 102.714C71.3415 103.164 71.0151 103.624 70.6932 104.093C70.3808 104.552 70.0819 105.012 69.797 105.472C69.5118 105.931 69.2547 106.368 69.0249 106.781H74.4025V107.926H67.4667V107.03C67.6598 106.662 67.8852 106.257 68.1423 105.816C68.4089 105.375 68.6893 104.925 68.9834 104.465C69.2867 104.005 69.5994 103.541 69.9214 103.072C70.243 102.603 70.5602 102.153 70.8727 101.721C71.1943 101.289 71.5021 100.885 71.7965 100.508C72.0997 100.131 72.3755 99.7999 72.6237 99.515H67.7152V98.3703H74.2645V99.4321ZM82.541 106.768V107.926H76.7911V98.3703H78.1286V106.768H82.541ZM91.4052 107.926C91.2491 107.512 91.1019 107.108 90.9642 106.713C90.8262 106.308 90.6837 105.899 90.5366 105.485H86.2068L85.3381 107.926H83.9458C84.3136 106.915 84.6581 105.982 84.9798 105.127C85.3017 104.263 85.6141 103.445 85.9177 102.672C86.2302 101.9 86.5379 101.165 86.8415 100.466C87.1447 99.7584 87.4617 99.0598 87.7928 98.3703H89.0198C89.3509 99.0598 89.6679 99.7584 89.9714 100.466C90.2747 101.165 90.578 101.9 90.8815 102.672C91.194 103.445 91.511 104.263 91.8329 105.127C92.1545 105.982 92.4993 106.915 92.8671 107.926H91.4052ZM90.1506 104.382C89.8565 103.583 89.5621 102.81 89.268 102.066C88.9831 101.312 88.6845 100.59 88.3718 99.9009C88.0499 100.59 87.7421 101.312 87.4478 102.066C87.1631 102.81 86.8782 103.583 86.593 104.382H90.1506ZM99.8371 101.445C99.4509 102.677 99.0605 103.817 98.6651 104.865C98.27 105.913 97.8744 106.933 97.4793 107.926H96.1418C95.6548 106.519 95.2225 105.035 94.8457 103.472C94.4779 101.91 94.1334 100.209 93.8115 98.3703H95.218C95.3466 99.0873 95.4801 99.8044 95.6181 100.521C95.7558 101.238 95.898 101.937 96.0452 102.617C96.1924 103.288 96.3396 103.932 96.4868 104.548C96.6334 105.164 96.7853 105.733 96.9417 106.257C97.3093 105.292 97.6999 104.235 98.1134 103.086C98.5271 101.928 98.9133 100.733 99.2717 99.5011H100.43C100.788 100.733 101.179 101.928 101.602 103.086C102.025 104.235 102.42 105.292 102.788 106.257C102.935 105.743 103.082 105.177 103.229 104.561C103.376 103.945 103.519 103.302 103.657 102.631C103.804 101.951 103.946 101.252 104.084 100.535C104.222 99.8091 104.355 99.0873 104.484 98.3703H105.849C105.518 100.209 105.164 101.91 104.787 103.472C104.42 105.035 103.997 106.519 103.519 107.926H102.181C101.777 106.933 101.381 105.913 100.995 104.865C100.609 103.817 100.223 102.677 99.8371 101.445Z" fill="#009E4D"/>
<path d="M33.9668 113.888C34.3579 113.966 34.5537 114.188 34.5537 114.557C34.5537 114.819 34.4587 115.016 34.2688 115.148C34.079 115.28 33.7955 115.347 33.4188 115.347C33.1656 115.347 32.9626 115.341 32.8102 115.329H32.806L32.8276 114.496L32.806 112.563L33.5741 112.559C33.833 112.559 34.0315 112.616 34.1695 112.731C34.3105 112.846 34.381 113.013 34.381 113.232C34.381 113.387 34.345 113.521 34.273 113.633C34.2013 113.745 34.0991 113.83 33.9668 113.888ZM34.0271 113.271C34.0271 113.121 33.9854 113.013 33.902 112.947C33.8216 112.878 33.689 112.844 33.5049 112.844H33.1554L33.1467 113.771L33.6215 113.784C33.8921 113.721 34.0271 113.55 34.0271 113.271ZM33.4704 115.057C33.7064 115.057 33.8876 115.013 34.0142 114.924C34.1408 114.834 34.204 114.706 34.204 114.539C34.204 114.257 34.0271 114.096 33.6734 114.056L33.1425 114.06L33.1383 114.466L33.1512 115.045C33.2634 115.053 33.3699 115.057 33.4704 115.057ZM36.4442 114.462C36.6197 114.729 36.814 114.993 37.027 115.251L37.0225 115.295C36.9017 115.332 36.8024 115.354 36.7247 115.359L36.6688 115.325C36.4499 114.994 36.2846 114.734 36.1725 114.544L35.7667 114.548V114.656L35.7754 115.329H35.4562L35.4691 114.682L35.4562 113.18L36.1898 113.176C36.4169 113.176 36.5909 113.229 36.7118 113.335C36.8356 113.442 36.8974 113.596 36.8974 113.797C36.8974 113.944 36.8572 114.075 36.7766 114.19C36.6989 114.305 36.5882 114.396 36.4442 114.462ZM35.7711 114.281L36.1767 114.293C36.4328 114.221 36.5609 114.065 36.5609 113.823C36.5609 113.697 36.5234 113.602 36.4487 113.538C36.3737 113.475 36.2603 113.44 36.1077 113.435L35.7754 113.439L35.7711 114.281ZM39.6166 115.329H39.293L39.2411 115.096L39.1289 114.777L38.6154 114.772L38.158 114.777L38.0414 115.079L37.981 115.329H37.6616L38.4903 113.18H38.8614L39.6166 115.329ZM39.0384 114.514L38.6802 113.495H38.6542L38.2615 114.514L38.6412 114.518L39.0384 114.514ZM42.278 114.686L42.2822 115.329H41.937L40.8065 113.689H40.7849L40.7807 114.613L40.7891 115.329H40.4957L40.5087 114.695L40.5 113.18H40.841L41.9717 114.82H42.0018L41.9933 113.193L42.2909 113.171L42.278 114.686ZM44.2531 113.163C44.5813 113.163 44.8314 113.251 45.0042 113.426C45.1796 113.602 45.2673 113.853 45.2673 114.181C45.2673 114.558 45.1725 114.847 44.9826 115.049C44.7927 115.25 44.5207 115.351 44.167 115.351C44.0663 115.351 43.9454 115.348 43.8044 115.342C43.6664 115.339 43.5354 115.335 43.4118 115.329L43.4247 114.682L43.4118 113.18L44.2531 113.163ZM44.2186 115.087C44.449 115.087 44.6259 115.018 44.7495 114.88C44.8761 114.739 44.9394 114.528 44.9394 114.246C44.9394 113.97 44.8803 113.766 44.7624 113.633C44.6445 113.501 44.4661 113.435 44.2273 113.435C44.0864 113.435 43.9211 113.44 43.7312 113.452L43.7225 114.656L43.7267 115.062C43.8101 115.067 43.898 115.073 43.9901 115.079C44.0821 115.085 44.1583 115.087 44.2186 115.087ZM48.8944 112.598L48.8683 112.865L48.3851 112.839H48.1046L48.0917 114.466L48.1046 115.329H47.7549L47.781 114.496L47.7594 112.839H47.4789L46.9867 112.865L46.9652 112.831L46.9912 112.563H48.8683L48.8944 112.598ZM51.5061 114.656L51.5148 115.329H51.1954L51.2085 114.682L51.204 114.389L50.0346 114.393L50.0303 114.656L50.039 115.329H49.7196L49.7325 114.682L49.7196 113.18H50.0432L50.0346 114.104L50.6173 114.108L51.204 114.104L51.1954 113.18H51.5193L51.5061 114.656ZM53.9476 115.053L53.9734 115.079L53.9431 115.329H52.6356L52.6485 114.682L52.6356 113.18H53.9518L53.9734 113.206L53.9476 113.456L53.4038 113.439L52.9548 113.443L52.9506 114.095L53.3777 114.099L53.7532 114.086L53.7748 114.117L53.749 114.371L53.3519 114.358L52.9506 114.362L52.9464 114.656L52.9506 115.066L53.3735 115.07L53.9476 115.053ZM58.0542 114.466L58.0629 115.329H57.7218L57.739 114.496L57.7348 114.082L56.9666 114.078L56.2632 114.082L56.259 114.466L56.2719 115.329H55.9309L55.9438 114.496L55.9309 112.563H56.2761L56.2632 113.789L56.9969 113.793L57.7348 113.789L57.7218 112.563H58.0713L58.0542 114.466ZM60.5207 115.053L60.5468 115.079L60.5165 115.329H59.2088L59.2219 114.682L59.2088 113.18H60.5252L60.5468 113.206L60.5207 113.456L59.9772 113.439L59.5282 113.443L59.524 114.095L59.9511 114.099L60.3266 114.086L60.3482 114.117L60.3224 114.371L59.9253 114.358L59.524 114.362L59.5195 114.656L59.524 115.066L59.9469 115.07L60.5207 115.053ZM63.1039 115.329H62.7805L62.7287 115.096L62.6162 114.777L62.1027 114.772L61.6453 114.777L61.5289 115.079L61.4683 115.329H61.1489L61.9776 113.18H62.3489L63.1039 115.329ZM62.5256 114.514L62.1675 113.495H62.1417L61.7488 114.514L62.1288 114.518L62.5256 114.514ZM64.9716 114.462C65.1466 114.729 65.3409 114.993 65.5538 115.251L65.5496 115.295C65.4285 115.332 65.3297 115.354 65.2518 115.359L65.1957 115.325C64.977 114.994 64.8117 114.734 64.6993 114.544L64.2938 114.548V114.656L64.3025 115.329H63.983L63.9962 114.682L63.983 113.18L64.7167 113.176C64.944 113.176 65.118 113.229 65.2389 113.335C65.3625 113.442 65.4243 113.596 65.4243 113.797C65.4243 113.944 65.3841 114.075 65.3037 114.19C65.226 114.305 65.1153 114.396 64.9716 114.462ZM64.298 114.281L64.7038 114.293C64.9597 114.221 65.0877 114.065 65.0877 113.823C65.0877 113.697 65.0505 113.602 64.9758 113.538C64.9008 113.475 64.7874 113.44 64.6345 113.435L64.3025 113.439L64.298 114.281ZM67.6685 113.206L67.6469 113.478L67.2455 113.448H67.0299L67.0169 114.656L67.0299 115.329H66.706L66.7189 114.682L66.7104 113.448H66.4947L66.0847 113.478L66.0589 113.448L66.0847 113.18H67.6511L67.6685 113.206ZM68.2922 114.949C68.3495 114.949 68.3959 114.967 68.4304 115.001C68.4647 115.036 68.4818 115.083 68.4818 115.144C68.4818 115.207 68.4634 115.257 68.4259 115.295C68.3914 115.332 68.3423 115.351 68.2793 115.351C68.2187 115.351 68.1713 115.333 68.1368 115.299C68.1053 115.264 68.0891 115.216 68.0891 115.152C68.0891 115.092 68.1065 115.043 68.141 115.006C68.1782 114.968 68.2289 114.949 68.2922 114.949ZM72.2044 112.598L72.1786 112.865L71.6951 112.839H71.4144L71.4015 114.466L71.4144 115.329H71.065L71.0908 114.496L71.0692 112.839H70.789L70.2968 112.865L70.2752 112.831L70.3013 112.563H72.1786L72.2044 112.598ZM74.8162 114.656L74.8249 115.329H74.5054L74.5183 114.682L74.5139 114.389L73.3446 114.393L73.3402 114.656L73.3489 115.329H73.0297L73.0426 114.682L73.0297 113.18H73.3531L73.3446 114.104L73.9271 114.108L74.5139 114.104L74.5054 113.18H74.8293L74.8162 114.656ZM77.2574 115.053L77.2835 115.079L77.2532 115.329H75.9455L75.9586 114.682L75.9455 113.18H77.2619L77.2835 113.206L77.2574 113.456L76.7136 113.439L76.2649 113.443L76.2604 114.095L76.6878 114.099L77.0631 114.086L77.0847 114.117L77.0588 114.371L76.6617 114.358L76.2604 114.362L76.2562 114.656L76.2604 115.066L76.6833 115.07L77.2574 115.053ZM81.977 115.329H81.6661L81.6013 114.488L81.4548 113.111H81.4246L80.6564 115.01H80.3715L79.6423 113.111H79.6078L79.4609 114.462L79.3876 115.329H79.094L79.3834 112.563H79.7761L79.9183 112.986L80.5184 114.561H80.5442L81.1741 112.96L81.3166 112.563H81.705L81.977 115.329ZM83.2845 114.656L83.2932 115.329H82.974L82.9869 114.682L82.974 113.18H83.2977L83.2845 114.656ZM86.2184 114.686L86.2229 115.329H85.8774L84.7469 113.689H84.7253L84.7208 114.613L84.7295 115.329H84.4361L84.4491 114.695L84.4404 113.18H84.7814L85.9119 114.82H85.9422L85.9335 113.193L86.2316 113.171L86.2184 114.686ZM88.1935 113.163C88.5214 113.163 88.7721 113.251 88.9443 113.426C89.12 113.602 89.2079 113.853 89.2079 114.181C89.2079 114.558 89.1129 114.847 88.9227 115.049C88.7331 115.25 88.4611 115.351 88.1072 115.351C88.0066 115.351 87.8858 115.348 87.7448 115.342C87.6066 115.339 87.4758 115.335 87.3522 115.329L87.3651 114.682L87.3522 113.18L88.1935 113.163ZM88.159 115.087C88.3891 115.087 88.5663 115.018 88.6899 114.88C88.8165 114.739 88.8795 114.528 88.8795 114.246C88.8795 113.97 88.8207 113.766 88.7028 113.633C88.5847 113.501 88.4065 113.435 88.1677 113.435C88.0268 113.435 87.8615 113.44 87.6713 113.452L87.6627 114.656L87.6671 115.062C87.7508 115.067 87.8384 115.073 87.9305 115.079C88.0225 115.085 88.0987 115.087 88.159 115.087ZM91.5615 112.861L91.5528 113.823L92.0189 113.832L92.4677 113.819L92.4937 113.853L92.4635 114.117L91.9844 114.104L91.5486 114.108L91.5442 114.466L91.5615 115.329H91.2121L91.2337 114.496L91.2121 112.563H92.6836L92.7097 112.598L92.6794 112.874L92.0448 112.852L91.5615 112.861ZM94.2572 113.154C94.5706 113.154 94.8109 113.246 94.9777 113.43C95.1474 113.614 95.2323 113.875 95.2323 114.212C95.2323 114.577 95.142 114.86 94.9605 115.062C94.7823 115.26 94.5262 115.359 94.1924 115.359C93.8819 115.359 93.6414 115.266 93.4719 115.079C93.3019 114.889 93.217 114.62 93.217 114.272C93.217 113.915 93.3078 113.64 93.489 113.448C93.6702 113.252 93.9263 113.154 94.2572 113.154ZM94.2269 113.426C93.9995 113.426 93.83 113.491 93.7176 113.62C93.6084 113.75 93.5535 113.954 93.5535 114.233C93.5535 114.532 93.6084 114.749 93.7176 114.885C93.8268 115.02 93.9938 115.087 94.2184 115.087C94.4485 115.087 94.6198 115.021 94.7319 114.889C94.8439 114.757 94.9 114.55 94.9 114.268C94.9 113.977 94.8439 113.764 94.7319 113.629C94.6225 113.494 94.4542 113.426 94.2269 113.426ZM97.1469 114.462C97.3223 114.729 97.5164 114.993 97.7296 115.251L97.7254 115.295C97.6043 115.332 97.505 115.354 97.4273 115.359L97.3712 115.325C97.1528 114.994 96.987 114.734 96.8751 114.544L96.4695 114.548V114.656L96.4782 115.329H96.1586L96.1715 114.682L96.1586 113.18L96.8925 113.176C97.1196 113.176 97.2938 113.229 97.4144 113.335C97.538 113.442 97.6001 113.596 97.6001 113.797C97.6001 113.944 97.5596 114.075 97.4792 114.19C97.4015 114.305 97.2906 114.396 97.1469 114.462ZM96.4738 114.281L96.8796 114.293C97.1354 114.221 97.2635 114.065 97.2635 113.823C97.2635 113.697 97.2258 113.602 97.1513 113.538C97.0766 113.475 96.9627 113.44 96.8103 113.435L96.4782 113.439L96.4738 114.281ZM99.5347 113.158C99.7593 113.158 99.9852 113.207 100.212 113.305L100.105 113.616H100.066C99.9592 113.547 99.8614 113.499 99.7723 113.473C99.6829 113.445 99.5866 113.43 99.4829 113.43C99.2384 113.43 99.0545 113.499 98.9304 113.637C98.8098 113.776 98.7494 113.991 98.7494 114.285C98.7494 114.567 98.8055 114.771 98.9175 114.898C99.0299 115.021 99.2081 115.083 99.4528 115.083C99.5246 115.083 99.5938 115.078 99.6601 115.066C99.7261 115.051 99.8065 115.027 99.9016 114.993V114.777L99.8973 114.47L100.195 114.449V115.226C99.9045 115.312 99.6526 115.355 99.4397 115.355C99.1004 115.355 98.8428 115.264 98.6673 115.083C98.4946 114.899 98.4087 114.637 98.4087 114.298C98.4087 113.93 98.5065 113.648 98.7018 113.452C98.9006 113.256 99.1781 113.158 99.5347 113.158ZM102.531 115.053L102.557 115.079L102.527 115.329H101.219L101.232 114.682L101.219 113.18H102.536L102.557 113.206L102.531 113.456L101.988 113.439L101.539 113.443L101.535 114.095L101.962 114.099L102.337 114.086L102.359 114.117L102.333 114.371L101.936 114.358L101.535 114.362L101.53 114.656L101.535 115.066L101.958 115.07L102.531 115.053ZM104.799 113.206L104.778 113.478L104.377 113.448H104.161L104.148 114.656L104.161 115.329H103.837L103.85 114.682L103.841 113.448H103.626L103.216 113.478L103.19 113.448L103.216 113.18H104.782L104.799 113.206Z" fill="#EE4130"/>
</g>
<defs>
<clipPath id="clip0_489_953">
<rect width="114.914" height="115.41" fill="white"/>
</clipPath>
</defs>
</svg>
